<svg width="110" height="110" viewBox="0 0 110 110" fill="none" xmlns="http://www.w3.org/2000/svg">
<circle opacity="0.1" cx="55" cy="55" r="55" fill="#257A37"/>
<circle opacity="0.3" cx="55" cy="55" r="41" fill="#257A37"/>
<g clip-path="url(#clip0)">
<path d="M54.502 75.0001C65.8202 75.0001 74.9954 65.8219 74.9954 54.5C74.9954 43.1782 65.8202 34 54.502 34C43.1838 34 34.0086 43.1782 34.0086 54.5C34.0086 65.8219 43.1838 75.0001 54.502 75.0001Z" fill="#359F4C"/>
<path d="M54.5005 34C54.4912 34 54.482 34.0003 54.4727 34.0003V74.9997C54.482 74.9997 54.4912 75 54.5005 75C65.8187 75 74.9939 65.8219 74.9939 54.5C74.9939 43.1781 65.8187 34 54.5005 34Z" fill="#257A37"/>
<path d="M42.9148 54.907L51.2038 63.196C51.5653 63.5575 52.1515 63.5575 52.513 63.196L66.1211 49.5878C66.4827 49.2263 66.4827 48.6401 66.1211 48.2786L63.6442 45.8017C63.2827 45.4402 62.6965 45.4402 62.335 45.8017L52.4372 55.6993C52.0757 56.0608 51.4896 56.0608 51.128 55.6993L46.6925 51.2638C46.3381 50.9094 45.766 50.9014 45.4019 51.2457L42.9334 53.5796C42.5545 53.9379 42.5461 54.5382 42.9148 54.907Z" fill="#FFF5F5"/>
<path d="M63.6436 45.8017C63.2821 45.4402 62.6959 45.4402 62.3344 45.8017L54.4727 53.6633V61.2356L66.1205 49.5879C66.482 49.2264 66.482 48.6402 66.1205 48.2786L63.6436 45.8017Z" fill="#DFEBF1"/>
</g>
<defs>
<clipPath id="clip0">
<rect width="41" height="41" fill="white" transform="translate(34 34)"/>
</clipPath>
</defs>
</svg>
