<svg width="24" height="24" viewBox="0 0 24 24" fill="none" xmlns="http://www.w3.org/2000/svg">
<path d="M12.0001 0.47998C5.6377 0.47998 0.480103 5.63758 0.480103 12C0.480103 18.3624 5.6377 23.52 12.0001 23.52C18.3625 23.52 23.5201 18.3624 23.5201 12C23.5201 5.63758 18.3625 0.47998 12.0001 0.47998ZM8.9233 14.4C8.6095 14.3987 8.29903 14.3356 8.00963 14.2143C7.72022 14.093 7.45757 13.9158 7.23669 13.6929C7.0158 13.47 6.84101 13.2058 6.72231 12.9153C6.60361 12.6248 6.54332 12.3138 6.5449 12C6.5449 10.674 7.6093 9.59998 8.9233 9.59998C10.2361 9.59998 11.3017 10.674 11.3017 12C11.3017 13.326 10.2349 14.4 8.9233 14.4ZM15.0781 14.4C14.7642 14.3987 14.4537 14.3356 14.1642 14.2143C13.8748 14.093 13.612 13.9159 13.3911 13.693C13.1701 13.4701 12.9952 13.2059 12.8763 12.9154C12.7575 12.6249 12.6971 12.3138 12.6985 12C12.6985 10.674 13.7641 9.59998 15.0781 9.59998C15.3919 9.60124 15.7024 9.66433 15.9918 9.78565C16.2812 9.90698 16.5438 10.0841 16.7647 10.307C16.9856 10.5299 17.1604 10.7942 17.2791 11.0847C17.3978 11.3751 17.4581 11.6862 17.4565 12C17.4565 13.326 16.3921 14.4 15.0781 14.4Z" fill="white"/>
</svg>
