<svg width="20" height="19" viewBox="0 0 20 19" fill="none" xmlns="http://www.w3.org/2000/svg">
<path d="M9.99966 7.18414C8.60191 7.18414 7.46124 8.28094 7.46124 9.62493C7.46124 10.9689 8.60191 12.0657 9.99966 12.0657C11.3974 12.0657 12.5381 10.9689 12.5381 9.62493C12.5381 8.28094 11.3974 7.18414 9.99966 7.18414ZM17.613 9.62493C17.613 8.61419 17.6226 7.61261 17.5635 6.60369C17.5045 5.43182 17.2265 4.39178 16.3353 3.53485C15.4421 2.67608 14.3624 2.41058 13.1437 2.35382C12.0925 2.29705 11.0508 2.30621 10.0016 2.30621C8.9504 2.30621 7.90875 2.29705 6.85948 2.35382C5.64073 2.41058 4.55909 2.67791 3.66788 3.53485C2.77476 4.39361 2.49864 5.43182 2.4396 6.60369C2.38057 7.61444 2.39009 8.61602 2.39009 9.62493C2.39009 10.6338 2.38057 11.6373 2.4396 12.6462C2.49864 13.818 2.77667 14.8581 3.66788 15.715C4.56099 16.5738 5.64073 16.8393 6.85948 16.8961C7.91065 16.9528 8.9523 16.9437 10.0016 16.9437C11.0527 16.9437 12.0944 16.9528 13.1437 16.8961C14.3624 16.8393 15.444 16.572 16.3353 15.715C17.2284 14.8563 17.5045 13.818 17.5635 12.6462C17.6245 11.6373 17.613 10.6357 17.613 9.62493ZM9.99966 13.3804C7.83829 13.3804 6.09395 11.7032 6.09395 9.62493C6.09395 7.54669 7.83829 5.86944 9.99966 5.86944C12.161 5.86944 13.9054 7.54669 13.9054 9.62493C13.9054 11.7032 12.161 13.3804 9.99966 13.3804ZM14.0653 6.59271C13.5607 6.59271 13.1532 6.20086 13.1532 5.71563C13.1532 5.2304 13.5607 4.83856 14.0653 4.83856C14.57 4.83856 14.9775 5.2304 14.9775 5.71563C14.9776 5.83085 14.9542 5.94497 14.9084 6.05145C14.8626 6.15792 14.7954 6.25467 14.7107 6.33614C14.6259 6.41761 14.5253 6.48221 14.4146 6.52624C14.3038 6.57026 14.1852 6.59285 14.0653 6.59271Z" fill="#333333"/>
</svg>
